<svg width="1" height="1" viewBox="0 0 1 1" fill="none" xmlns="http://www.w3.org/2000/svg">
  <path
    d="M0.911218 0.329658 C0.917139 0.296710 0.914994 0.262818 0.904967 0.230880 C0.894939 0.198941 0.877327 0.169906 0.853635 0.146256 C0.829944 0.122605 0.800878 0.105043 0.768923 0.095071 C0.736967 0.085098 0.703072 0.083012 0.670134 0.088990 C0.651042 0.061524 0.625587 0.039086 0.595943 0.023589 C0.566299 0.008093 0.533346 0.000000 0.499896 0.000000 C0.466446 0.000000 0.433493 0.008093 0.403849 0.023589 C0.374204 0.039086 0.348750 0.061524 0.329658 0.088990 C0.296750 0.083089 0.262904 0.085234 0.231005 0.095241 C0.199106 0.105248 0.170100 0.122820 0.146460 0.146460 C0.122820 0.170100 0.105248 0.199106 0.095241 0.231005 C0.085234 0.262904 0.083089 0.296750 0.088990 0.329658 C0.061524 0.348750 0.039086 0.374204 0.023589 0.403849 C0.008093 0.433493 0.000000 0.466446 0.000000 0.499896 C0.000000 0.533346 0.008093 0.566299 0.023589 0.595943 C0.039086 0.625587 0.061524 0.651042 0.088990 0.670134 C0.083041 0.703077 0.085156 0.736970 0.095156 0.768917 C0.105156 0.800864 0.122744 0.829915 0.146414 0.853586 C0.170085 0.877256 0.199136 0.894844 0.231083 0.904844 C0.263030 0.914844 0.296923 0.916959 0.329866 0.911010 C0.348958 0.938476 0.374413 0.960914 0.404057 0.976410 C0.433701 0.991907 0.466654 1.000000 0.500104 1.000000 C0.533554 1.000000 0.566507 0.991907 0.596151 0.976410 C0.625796 0.960914 0.651250 0.938476 0.670343 0.911010 C0.703270 0.916921 0.737139 0.914776 0.769057 0.904759 C0.800976 0.894741 0.829997 0.877149 0.853642 0.853483 C0.877287 0.829818 0.894854 0.800782 0.904844 0.768854 C0.914834 0.736927 0.916949 0.703056 0.911010 0.670134 C0.938476 0.651042 0.960914 0.625587 0.976410 0.595943 C0.991907 0.566299 1.000000 0.533346 1.000000 0.499896 C1.000000 0.466446 0.991907 0.433493 0.976410 0.403849 C0.960914 0.374204 0.938476 0.348750 0.911010 0.329658 L0.911218 0.329658 Z"
    fill="black"
  />
</svg>